<?xml version="1.0" encoding="utf-8"?>
<!-- Generator: Adobe Illustrator 12.0.0, SVG Export Plug-In  -->
<!DOCTYPE svg PUBLIC "-//W3C//DTD SVG 1.1//EN" "http://www.w3.org/Graphics/SVG/1.1/DTD/svg11.dtd" [
	<!ENTITY ns_flows "http://ns.adobe.com/Flows/1.0/">
	<!ENTITY ns_svg "http://www.w3.org/2000/svg">
	<!ENTITY ns_xlink "http://www.w3.org/1999/xlink">
]>
<svg  version="1.1" xmlns="&ns_svg;" xmlns:xlink="&ns_xlink;" xmlns:a="http://ns.adobe.com/AdobeSVGViewerExtensions/3.0/"
	 width="51" height="20" viewBox="-0.665 -0.145 51 20" enable-background="new -0.665 -0.145 51 20" xml:space="preserve">
<defs>
</defs>
<path fill="#FFFFFF" d="M21.424,3.715l0.613,0.175l1.682,0.425L22.961,4.65l-1.01-0.256l0.839,1.012c0,0-2.415,0.592-3.029-0.345
	c-0.555,0.839-1.916,9.872-2.114,10.172c1.745,2.525,4.657,4.186,7.959,4.195c5.36,0.016,9.719-4.32,9.734-9.682
	c0.016-5.364-4.318-9.724-9.68-9.739c-3.28-0.009-6.186,1.615-7.949,4.104c0.422,0.65,1.245,1.917,1.713,2.642
	C20.083,5.756,21.424,3.715,21.424,3.715"/>
<path fill="#120B14" d="M11.561,1.115c-0.017-0.003-0.035-0.006-0.053-0.009l-0.021-0.003c-0.03-0.004-0.06-0.008-0.091-0.01
	c-0.022-0.003-0.043-0.004-0.063-0.005c-0.038-0.003-0.074-0.004-0.109-0.004c-0.017,0-0.027,0.001-0.042,0.001
	c-0.031,0-0.06,0.002-0.088,0.004c-0.016,0.001-0.032,0.002-0.048,0.004C11.022,1.095,11,1.097,10.977,1.1l-0.02,0.002l-0.022,0.004
	L10.91,1.11c-0.011,0.002-0.022,0.004-0.033,0.006c-0.017,0.002-0.032,0.006-0.047,0.009c-0.093,0.02-0.18,0.046-0.259,0.077
	c-0.041,0.016-0.081,0.034-0.118,0.052c-0.032,0.015-0.062,0.032-0.091,0.048c-0.028,0.016-0.055,0.032-0.081,0.05
	c-0.014,0.01-0.029,0.019-0.044,0.03c-0.012,0.009-0.024,0.018-0.036,0.027c-0.025,0.019-0.049,0.039-0.072,0.059
	c-0.021,0.019-0.041,0.038-0.06,0.056c-0.017,0.016-0.034,0.033-0.049,0.052C10.004,1.593,9.988,1.611,9.973,1.63
	C9.956,1.65,9.941,1.67,9.926,1.691C9.914,1.707,9.903,1.723,9.892,1.74C9.884,1.751,9.878,1.762,9.871,1.774
	C9.83,1.84,9.794,1.912,9.764,1.989C9.727,2.085,9.701,2.188,9.686,2.297c-0.004,0.035-0.007,0.069-0.01,0.106
	C9.674,2.43,9.673,2.458,9.673,2.486c0,0.021,0,0.042,0.001,0.063C9.676,2.57,9.679,2.591,9.681,2.612l0.001,0.015
	c0.003,0.026,0.007,0.051,0.012,0.074C9.696,2.711,9.698,2.72,9.7,2.73c0.004,0.02,0.009,0.04,0.013,0.06
	c0.008,0.025,0.015,0.05,0.024,0.075c0.009,0.03,0.021,0.059,0.032,0.088c0.019,0.045,0.041,0.089,0.062,0.13
	c0.014,0.024,0.027,0.047,0.041,0.07c0.012,0.018,0.023,0.035,0.034,0.052c0.015,0.023,0.032,0.044,0.048,0.064
	C9.97,3.291,9.988,3.31,10.005,3.33c0.02,0.024,0.041,0.046,0.062,0.067l0.01,0.01c0.018,0.016,0.036,0.035,0.057,0.053
	c0.015,0.011,0.03,0.025,0.046,0.037c0.015,0.012,0.031,0.024,0.047,0.036c0.021,0.015,0.04,0.029,0.063,0.043
	c0.024,0.014,0.049,0.03,0.075,0.045c0.052,0.029,0.109,0.057,0.173,0.083c0.023,0.009,0.048,0.018,0.073,0.026
	c0.025,0.009,0.05,0.017,0.077,0.025c0.046,0.012,0.094,0.024,0.143,0.034c0.04,0.008,0.083,0.014,0.126,0.019
	C11,3.814,11.045,3.818,11.09,3.82c0.023,0.002,0.046,0.002,0.069,0.003h0.032c0.083,0,0.159-0.003,0.231-0.009l0.014-0.001
	c0.028-0.003,0.055-0.006,0.081-0.01c0.042-0.004,0.079-0.01,0.116-0.017c0.023-0.003,0.046-0.009,0.068-0.013
	c0.034-0.007,0.066-0.016,0.097-0.023c0.023-0.006,0.045-0.012,0.066-0.019c0.026-0.007,0.049-0.016,0.073-0.024L11.959,3.7
	c0.012-0.004,0.027-0.01,0.044-0.017c0.024-0.009,0.053-0.02,0.085-0.035c0.02-0.008,0.041-0.017,0.063-0.027
	c0.018-0.009,0.039-0.02,0.06-0.029c0.008-0.004,0.017-0.008,0.026-0.012V3.073c-0.006,0.005-0.013,0.009-0.019,0.012l-0.034,0.021
	c-0.035,0.021-0.068,0.041-0.101,0.059c-0.036,0.019-0.074,0.038-0.109,0.056c-0.062,0.029-0.123,0.054-0.18,0.074
	c-0.111,0.04-0.212,0.064-0.301,0.081c-0.011,0.001-0.021,0.003-0.031,0.005c-0.025,0.003-0.048,0.007-0.072,0.009
	c-0.034,0.004-0.067,0.006-0.096,0.007c-0.02,0.001-0.037,0.002-0.054,0.002c-0.036,0-0.073-0.001-0.111-0.004
	c-0.044-0.003-0.088-0.009-0.134-0.016c-0.073-0.012-0.146-0.031-0.217-0.057c-0.012-0.003-0.022-0.008-0.033-0.012
	c-0.006-0.002-0.013-0.005-0.021-0.008c-0.011-0.006-0.022-0.01-0.034-0.016c-0.025-0.011-0.05-0.024-0.074-0.038
	c-0.011-0.007-0.023-0.014-0.035-0.021c-0.012-0.008-0.024-0.015-0.036-0.025c-0.014-0.009-0.029-0.02-0.043-0.031
	c-0.014-0.011-0.028-0.023-0.04-0.032l-0.017-0.015l-0.008-0.008l-0.005-0.005l-0.006-0.005c-0.023-0.023-0.044-0.046-0.064-0.069
	c-0.009-0.012-0.019-0.026-0.03-0.038c-0.008-0.013-0.017-0.025-0.025-0.038c-0.008-0.012-0.015-0.024-0.022-0.036
	c-0.01-0.017-0.02-0.035-0.03-0.053c-0.006-0.015-0.013-0.03-0.019-0.045c-0.011-0.025-0.02-0.051-0.028-0.076
	c-0.006-0.018-0.011-0.038-0.017-0.056c-0.012-0.052-0.019-0.1-0.023-0.142c-0.002-0.016-0.002-0.031-0.004-0.044
	c0-0.02,0-0.037,0-0.051V2.426c0-0.029,0.004-0.066,0.009-0.107c0.004-0.026,0.009-0.053,0.016-0.082
	c0.004-0.019,0.009-0.037,0.016-0.057c0.006-0.018,0.012-0.036,0.02-0.056c0.003-0.012,0.009-0.024,0.015-0.037
	c0.007-0.017,0.015-0.034,0.024-0.051c0.007-0.013,0.014-0.027,0.022-0.039c0.016-0.029,0.036-0.057,0.057-0.086
	C10.35,1.9,10.358,1.89,10.366,1.88c0.011-0.012,0.022-0.026,0.034-0.039c0.007-0.006,0.013-0.012,0.019-0.019
	c0.093-0.092,0.197-0.162,0.304-0.211c0.017-0.007,0.034-0.014,0.051-0.021c0.018-0.007,0.034-0.013,0.052-0.019
	c0.018-0.006,0.037-0.012,0.056-0.017c0.017-0.005,0.036-0.01,0.053-0.014c0.018-0.004,0.037-0.008,0.054-0.011
	c0.019-0.003,0.038-0.006,0.058-0.009c0.02-0.002,0.039-0.004,0.058-0.006c0.038-0.003,0.073-0.005,0.108-0.005
	c0.013,0,0.024,0,0.036,0.001c0.027,0,0.051,0.001,0.076,0.002c0.018,0.002,0.035,0.002,0.052,0.004
	c0.031,0.004,0.062,0.007,0.091,0.012c0.026,0.004,0.052,0.008,0.075,0.012c0.036,0.008,0.069,0.016,0.1,0.024
	c0.018,0.004,0.036,0.01,0.052,0.015c0.024,0.008,0.045,0.014,0.062,0.019c0.028,0.01,0.044,0.015,0.044,0.015
	c0.024,0.009,0.049,0.02,0.073,0.029c0.032,0.014,0.063,0.027,0.092,0.04c0.025,0.012,0.047,0.023,0.07,0.033
	c0.018,0.009,0.035,0.018,0.05,0.026c0.028,0.014,0.052,0.027,0.07,0.038l0.052,0.028V1.31c0,0-0.031-0.012-0.084-0.033
	c-0.024-0.009-0.052-0.019-0.084-0.03c-0.018-0.007-0.036-0.013-0.056-0.02c-0.016-0.005-0.032-0.011-0.049-0.016
	c-0.019-0.006-0.038-0.013-0.058-0.019c-0.015-0.004-0.03-0.009-0.046-0.014l-0.013-0.004c-0.014-0.004-0.03-0.007-0.044-0.012
	c-0.019-0.004-0.037-0.01-0.055-0.014c-0.012-0.002-0.024-0.005-0.036-0.008c-0.02-0.005-0.039-0.009-0.06-0.013
	C11.603,1.123,11.582,1.118,11.561,1.115 M9.079,0.599h3.94v3.707h-3.94V0.599z"/>
<path fill="#120B14" d="M6.052,2.649v0.728h0.473c0,0,0.01-0.001,0.024-0.001c0.016,0,0.039-0.002,0.067-0.003
	C6.666,3.367,6.734,3.358,6.8,3.336c0.06-0.019,0.117-0.05,0.161-0.094c0.017-0.017,0.032-0.035,0.043-0.053
	C7.04,3.13,7.05,3.071,7.052,3.038c0.001-0.015,0.001-0.023,0.001-0.023s0-0.007,0-0.018c0-0.014-0.002-0.041-0.009-0.071
	C7.035,2.891,7.019,2.852,6.989,2.814C6.982,2.808,6.976,2.801,6.97,2.795C6.957,2.782,6.943,2.769,6.927,2.757
	C6.901,2.739,6.872,2.722,6.84,2.708C6.797,2.69,6.75,2.676,6.696,2.666C6.671,2.661,6.642,2.657,6.613,2.655
	C6.595,2.652,6.578,2.651,6.559,2.65C6.542,2.649,6.525,2.649,6.508,2.649H6.052z"/>
<path fill="#120B14" d="M6.052,1.541v0.691H6.28c0,0,0.016,0,0.036-0.001c0.017,0,0.034-0.001,0.051-0.003
	C6.415,2.225,6.48,2.218,6.545,2.2c0.013-0.004,0.026-0.008,0.038-0.013c0.051-0.018,0.1-0.044,0.139-0.081
	c0.03-0.03,0.05-0.064,0.063-0.096C6.801,1.971,6.807,1.934,6.81,1.906c0.001-0.024,0.001-0.039,0.001-0.039s0-0.011-0.001-0.029
	c0-0.03-0.007-0.079-0.031-0.126C6.768,1.689,6.752,1.667,6.73,1.647C6.705,1.622,6.674,1.602,6.64,1.586
	c-0.064-0.028-0.139-0.04-0.2-0.043C6.412,1.542,6.388,1.541,6.367,1.541H6.052z"/>
<path fill="#120B14" d="M5.573,1.118v2.671h1.006c0,0,0.49,0.013,0.76-0.257c0.22-0.221,0.205-0.476,0.205-0.476
	s0.015-0.266-0.188-0.47C7.181,2.413,6.96,2.366,6.96,2.366s0.1-0.046,0.178-0.124C7.173,2.206,7.301,2.09,7.301,1.809
	c0-0.283-0.188-0.446-0.188-0.446S6.906,1.118,6.44,1.118H5.573z M4.54,0.599h3.94v3.707H4.54V0.599z"/>
<path fill="#120B14" d="M1.512,2.649v0.728h0.474c0,0,0.009-0.001,0.024-0.001c0.016,0,0.039-0.002,0.066-0.003
	c0.052-0.006,0.119-0.015,0.185-0.037c0.059-0.019,0.116-0.05,0.161-0.094c0.017-0.017,0.031-0.035,0.042-0.053
	C2.501,3.13,2.51,3.071,2.512,3.038c0.002-0.015,0.002-0.023,0.002-0.023V2.997c-0.002-0.014-0.003-0.041-0.01-0.071
	C2.495,2.891,2.479,2.852,2.449,2.814C2.444,2.808,2.438,2.801,2.431,2.795C2.417,2.782,2.404,2.769,2.389,2.757
	C2.362,2.739,2.332,2.722,2.301,2.708C2.258,2.69,2.21,2.676,2.158,2.666C2.132,2.661,2.104,2.657,2.074,2.655
	C2.056,2.652,2.038,2.651,2.021,2.65S1.986,2.649,1.97,2.649H1.512z"/>
<path fill="#120B14" d="M1.512,1.541v0.691h0.23c0,0,0.015,0,0.034-0.001c0.016,0,0.036-0.001,0.052-0.003
	C1.875,2.225,1.941,2.218,2.006,2.2c0.013-0.004,0.025-0.008,0.038-0.013c0.05-0.018,0.1-0.044,0.138-0.081
	c0.03-0.03,0.049-0.064,0.064-0.096c0.015-0.039,0.022-0.077,0.023-0.104c0.003-0.024,0.003-0.039,0.003-0.039V1.838
	C2.269,1.809,2.264,1.759,2.24,1.712C2.229,1.689,2.212,1.667,2.192,1.647C2.165,1.622,2.134,1.602,2.1,1.586
	c-0.064-0.028-0.138-0.04-0.2-0.043C1.873,1.542,1.848,1.541,1.828,1.541H1.512z"/>
<path fill="#120B14" d="M1.034,1.118v2.671h1.005c0,0,0.491,0.013,0.761-0.257c0.22-0.221,0.205-0.476,0.205-0.476
	S3.02,2.79,2.816,2.586c-0.174-0.173-0.395-0.22-0.395-0.22s0.1-0.046,0.177-0.124C2.634,2.206,2.762,2.09,2.762,1.809
	c0-0.283-0.189-0.446-0.189-0.446S2.367,1.118,1.902,1.118H1.034z M0,0.599h3.939v3.707H0V0.599z"/>
<path fill="#120B14" d="M0,5.225V8.29h0.44V6.96h0.184c0.226,0,0.409,0.072,0.814,0.701L1.843,8.29h0.525
	C2.157,7.999,2.081,7.895,1.949,7.683C1.716,7.301,1.546,7.018,1.267,6.834c0.328-0.131,0.512-0.396,0.512-0.751
	c0-0.53-0.386-0.859-1.006-0.859L0,5.225L0,5.225z M0.44,5.603h0.284c0.426,0,0.597,0.175,0.601,0.463
	c0.005,0.256-0.13,0.498-0.601,0.498H0.44V5.603z"/>
<path fill="#120B14" d="M3.969,5.208h-0.31L2.343,8.29h0.449l0.387-0.903h1.303L4.891,8.29H5.34L3.969,5.208z M3.808,5.881
	L4.303,6.99H3.349L3.808,5.881z"/>
<path fill="#120B14" d="M5.706,8.29H6.9c1.012,0,1.627-0.746,1.627-1.532c0-0.723-0.499-1.533-1.631-1.533h-1.19V8.29z M6.146,5.621
	h0.677c0.859,0,1.25,0.521,1.25,1.137c0,0.377-0.229,1.137-1.226,1.137H6.146V5.621z"/>
<rect x="9.035" y="5.224" fill="#120B14" width="0.44" height="3.065"/>
<path fill="#120B14" d="M9.983,6.757c0,0.831,0.634,1.572,1.636,1.572c1.038,0,1.658-0.746,1.658-1.572
	c0-0.853-0.637-1.573-1.649-1.573C10.635,5.185,9.983,5.909,9.983,6.757 M10.437,6.757c0-0.674,0.508-1.168,1.191-1.168
	c0.688,0,1.196,0.494,1.196,1.168c0,0.669-0.508,1.169-1.196,1.169C10.945,7.926,10.437,7.426,10.437,6.757"/>
<polygon fill="#120B14" points="26.999,13.949 29.759,9.742 26.999,5.549 "/>
<path fill="#120B14" d="M29.847,15.703h-6.252V7.449H22.07l2.19-3.328l5.786-0.001c0,0,1.174,1.787,1.791,2.723
	c0.553-0.841,1.557-2.369,1.754-2.67C31.839,1.652,28.923,0,25.62,0c-5.36,0-9.706,4.347-9.706,9.71
	c0,5.364,4.346,9.711,9.706,9.711c3.281,0,6.182-1.633,7.938-4.127c-0.424-0.648-1.25-1.914-1.721-2.637
	C31.183,13.658,29.847,15.703,29.847,15.703"/>
<path fill="#120B14" d="M35.138,11.617c0.123-0.617,0.188-1.254,0.188-1.907c0-0.631-0.063-1.247-0.177-1.845
	c-0.002,0.005-1.235,1.877-1.235,1.877S34.548,10.712,35.138,11.617"/>
<path fill="#120B14" d="M42.956,8.2c-0.537,0-1.063,0.317-1.365,0.989V8.372h-1.404v6.481h1.623v-2.625c0-0.354,0-0.757,0.014-1.111
	c0.035-0.951,0.402-1.488,0.865-1.488c0.172,0,0.354,0.073,0.478,0.134l0.5-1.391C43.507,8.298,43.298,8.2,42.956,8.2"/>
<path fill="#120B14" d="M46.595,13.535c-1.014,0-1.744-0.818-1.744-1.928c0-1.063,0.67-1.917,1.744-1.917
	c1.025,0,1.782,0.769,1.782,1.903C48.377,12.777,47.597,13.535,46.595,13.535 M48.304,8.372V9.08
	c-0.586-0.586-1.257-0.88-2.037-0.88c-1.686,0-3.052,1.391-3.052,3.417c0,1.99,1.44,3.406,3.087,3.406
	c0.818,0,1.428-0.293,2.002-0.854v0.685h1.623V8.372H48.304z"/>
<polygon fill="#120B14" points="38.664,5.979 37.041,5.979 37.041,8.372 36.212,8.372 36.212,9.762 37.041,9.762 37.041,14.853 
	38.664,14.853 38.664,9.762 39.628,9.762 39.628,8.372 38.664,8.372 "/>
</svg>
